{
    "asset" : {
        "generator" : "Khronos glTF Blender I/O v1.7.33",
        "version" : "2.0"
    },
    "scene" : 0,
    "scenes" : [
        {
            "name" : "Scene",
            "nodes" : [
                0
            ]
        }
    ],
    "nodes" : [
        {
            "mesh" : 0,
            "name" : "Circle",
            "scale" : [
                0.9651162624359131,
                1.0515464544296265,
                0.9651162624359131
            ]
        }
    ],
    "materials" : [
        {
            "doubleSided" : true,
            "name" : "Material",
            "pbrMetallicRoughness" : {
                "baseColorFactor" : [
                    0.9403979182243347,
                    0.9403979182243347,
                    0.9403979182243347,
                    1
                ],
                "metallicFactor" : 0,
                "roughnessFactor" : 0.5
            }
        },
        {
            "doubleSided" : true,
            "name" : "image",
            "pbrMetallicRoughness" : {
                "baseColorTexture" : {
                    "index" : 0
                },
                "metallicFactor" : 0,
                "roughnessFactor" : 0.5
            }
        }
    ],
    "meshes" : [
        {
            "name" : "Circle",
            "primitives" : [
                {
                    "attributes" : {
                        "POSITION" : 0,
                        "NORMAL" : 1,
                        "TEXCOORD_0" : 2
                    },
                    "indices" : 3,
                    "material" : 0
                },
                {
                    "attributes" : {
                        "POSITION" : 4,
                        "NORMAL" : 5,
                        "TEXCOORD_0" : 6
                    },
                    "indices" : 7,
                    "material" : 1
                }
            ]
        }
    ],
    "textures" : [
        {
            "sampler" : 0,
            "source" : 0
        }
    ],
    "images" : [
        {
            "mimeType" : "image/jpeg",
            "name" : "image",
            "uri" : "image1.jpeg"
        }
    ],
    "accessors" : [
        {
            "bufferView" : 0,
            "componentType" : 5126,
            "count" : 2167,
            "max" : [
                0.8600000739097595,
                0.9699999094009399,
                0.4280203580856323
            ],
            "min" : [
                -0.4280203580856323,
                0,
                -0.4280203580856323
            ],
            "type" : "VEC3"
        },
        {
            "bufferView" : 1,
            "componentType" : 5126,
            "count" : 2167,
            "type" : "VEC3"
        },
        {
            "bufferView" : 2,
            "componentType" : 5126,
            "count" : 2167,
            "type" : "VEC2"
        },
        {
            "bufferView" : 3,
            "componentType" : 5123,
            "count" : 10560,
            "type" : "SCALAR"
        },
        {
            "bufferView" : 4,
            "componentType" : 5126,
            "count" : 117,
            "max" : [
                -0.27351364493370056,
                0.8877503871917725,
                0.33179858326911926
            ],
            "min" : [
                -0.4280203580856323,
                0.10899648070335388,
                -0.27351364493370056
            ],
            "type" : "VEC3"
        },
        {
            "bufferView" : 5,
            "componentType" : 5126,
            "count" : 117,
            "type" : "VEC3"
        },
        {
            "bufferView" : 6,
            "componentType" : 5126,
            "count" : 117,
            "type" : "VEC2"
        },
        {
            "bufferView" : 7,
            "componentType" : 5123,
            "count" : 576,
            "type" : "SCALAR"
        }
    ],
    "bufferViews" : [
        {
            "buffer" : 0,
            "byteLength" : 26004,
            "byteOffset" : 0
        },
        {
            "buffer" : 0,
            "byteLength" : 26004,
            "byteOffset" : 26004
        },
        {
            "buffer" : 0,
            "byteLength" : 17336,
            "byteOffset" : 52008
        },
        {
            "buffer" : 0,
            "byteLength" : 21120,
            "byteOffset" : 69344
        },
        {
            "buffer" : 0,
            "byteLength" : 1404,
            "byteOffset" : 90464
        },
        {
            "buffer" : 0,
            "byteLength" : 1404,
            "byteOffset" : 91868
        },
        {
            "buffer" : 0,
            "byteLength" : 936,
            "byteOffset" : 93272
        },
        {
            "buffer" : 0,
            "byteLength" : 1152,
            "byteOffset" : 94208
        }
    ],
    "samplers" : [
        {
            "magFilter" : 9729,
            "minFilter" : 9987
        }
    ],
    "buffers" : [
        {
            "byteLength" : 95360,
            "uri" : "mug.bin"
        }
    ]
}
