{
    "asset" : {
        "generator" : "Khronos glTF Blender I/O v1.7.33",
        "version" : "2.0"
    },
    "scene" : 0,
    "scenes" : [
        {
            "name" : "Scene",
            "nodes" : [
                0
            ]
        }
    ],
    "nodes" : [
        {
            "mesh" : 0,
            "name" : "Mug",
            "rotation" : [
                0,
                0.9164040684700012,
                0,
                0.4002544581890106
            ],
            "scale" : [
                1.0,
                1.0,
                1.0
            ],
            "translation" : [
                0.0,
                -0.107,
		0.0
            ]
        }
    ],
    "animations" : [
        {
            "channels" : [
                {
                    "sampler" : 0,
                    "target" : {
                        "node" : 0,
                        "path" : "translation"
                    }
                },
                {
                    "sampler" : 1,
                    "target" : {
                        "node" : 0,
                        "path" : "rotation"
                    }
                },
                {
                    "sampler" : 2,
                    "target" : {
                        "node" : 0,
                        "path" : "scale"
                    }
                }
            ],
            "name" : "MugAction.001",
            "samplers" : [
                {
                    "input" : 4,
                    "interpolation" : "LINEAR",
                    "output" : 5
                },
                {
                    "input" : 4,
                    "interpolation" : "LINEAR",
                    "output" : 6
                },
                {
                    "input" : 7,
                    "interpolation" : "STEP",
                    "output" : 8
                }
            ]
        }
    ],
    "materials" : [
        {
            "doubleSided" : true,
            "name" : "Material.005",
            "pbrMetallicRoughness" : {
                "baseColorTexture" : {
                    "index" : 0
                },
                "metallicFactor" : 0.14987079799175262,
                "roughnessFactor" : 0.2571059465408325
            }
        }
    ],
    "meshes" : [
        {
            "name" : "Circle.001",
            "primitives" : [
                {
                    "attributes" : {
                        "POSITION" : 0,
                        "NORMAL" : 1,
                        "TEXCOORD_0" : 2
                    },
                    "indices" : 3,
                    "material" : 0
                }
            ]
        }
    ],
    "textures" : [
        {
            "sampler" : 0,
            "source" : 0
        }
    ],
    "images" : [
        {
            "mimeType" : "image/png",
            "name" : "custom_image",
            "uri" : "custom_image.png"
        }
    ],
    "accessors" : [
        {
            "bufferView" : 0,
            "componentType" : 5126,
            "count" : 2007,
            "max" : [
                0.8600000739097595,
                0.9699999094009399,
                0.4280203580856323
            ],
            "min" : [
                -0.4280203580856323,
                0,
                -0.4280203580856323
            ],
            "type" : "VEC3"
        },
        {
            "bufferView" : 1,
            "componentType" : 5126,
            "count" : 2007,
            "type" : "VEC3"
        },
        {
            "bufferView" : 2,
            "componentType" : 5126,
            "count" : 2007,
            "type" : "VEC2"
        },
        {
            "bufferView" : 3,
            "componentType" : 5123,
            "count" : 11136,
            "type" : "SCALAR"
        },
        {
            "bufferView" : 4,
            "componentType" : 5126,
            "count" : 180,
            "max" : [
                6
            ],
            "min" : [
                0.03333333333333333
            ],
            "type" : "SCALAR"
        },
        {
            "bufferView" : 5,
            "componentType" : 5126,
            "count" : 180,
            "type" : "VEC3"
        },
        {
            "bufferView" : 6,
            "componentType" : 5126,
            "count" : 180,
            "type" : "VEC4"
        },
        {
            "bufferView" : 7,
            "componentType" : 5126,
            "count" : 1,
            "max" : [
                3.8666666666666667
            ],
            "min" : [
                3.8666666666666667
            ],
            "type" : "SCALAR"
        },
        {
            "bufferView" : 8,
            "componentType" : 5126,
            "count" : 1,
            "type" : "VEC3"
        }
    ],
    "bufferViews" : [
        {
            "buffer" : 0,
            "byteLength" : 24084,
            "byteOffset" : 0
        },
        {
            "buffer" : 0,
            "byteLength" : 24084,
            "byteOffset" : 24084
        },
        {
            "buffer" : 0,
            "byteLength" : 16056,
            "byteOffset" : 48168
        },
        {
            "buffer" : 0,
            "byteLength" : 22272,
            "byteOffset" : 64224
        },
        {
            "buffer" : 0,
            "byteLength" : 720,
            "byteOffset" : 86496
        },
        {
            "buffer" : 0,
            "byteLength" : 2160,
            "byteOffset" : 87216
        },
        {
            "buffer" : 0,
            "byteLength" : 2880,
            "byteOffset" : 89376
        },
        {
            "buffer" : 0,
            "byteLength" : 4,
            "byteOffset" : 92256
        },
        {
            "buffer" : 0,
            "byteLength" : 12,
            "byteOffset" : 92260
        }
    ],
    "samplers" : [
        {
            "magFilter" : 9729,
            "minFilter" : 9987
        }
    ],
    "buffers" : [
        {
            "byteLength" : 92272,
            "uri" : "mug.bin"
        }
    ]
}
