{
    "asset" : {
        "generator" : "Khronos glTF Blender I/O v1.7.33",
        "version" : "2.0"
    },
    "scene" : 0,
    "scenes" : [
        {
            "name" : "Scene",
            "nodes" : [
                0
            ]
        }
    ],
    "nodes" : [
        {
            "mesh" : 0,
            "name" : "tshirt-woman",
            "rotation" : [
                0.7071068286895752,
                0,
                0,
                0.7071067094802856
            ],
            "translation" : [
                59.6818962097168,
                0,
                0
            ]
        }
    ],
    "materials" : [
        {
            "doubleSided" : true,
            "name" : "material",
            "pbrMetallicRoughness" : {
                "baseColorFactor" : [
                    0.2098236083984375,
                    0.8000000715255737,
                    0.39258939027786255,
                    1
                ],
                "metallicFactor" : 0,
                "roughnessFactor" : 0.5
            }
        },
        {
            "doubleSided" : true,
            "name" : "image",
            "pbrMetallicRoughness" : {
                "baseColorTexture" : {
                    "index" : 0
                },
                "metallicFactor" : 0,
                "roughnessFactor" : 0.5
            }
        }
    ],
    "meshes" : [
        {
            "name" : "uploads_files_605564_t+shirts",
            "primitives" : [
                {
                    "attributes" : {
                        "POSITION" : 0,
                        "NORMAL" : 1,
                        "TEXCOORD_0" : 2
                    },
                    "indices" : 3,
                    "material" : 0
                },
                {
                    "attributes" : {
                        "POSITION" : 4,
                        "NORMAL" : 5,
                        "TEXCOORD_0" : 6
                    },
                    "indices" : 7,
                    "material" : 1
                }
            ]
        }
    ],
    "textures" : [
        {
            "sampler" : 0,
            "source" : 0
        }
    ],
    "images" : [
        {
            "mimeType" : "image/jpeg",
            "name" : "image_tshirt_1",
            "uri" : "image_tshirt_1.jpg"
        }
    ],
    "accessors" : [
        {
            "bufferView" : 0,
            "componentType" : 5126,
            "count" : 5002,
            "max" : [
                -38.956722259521484,
                11.650382995605469,
                3.1165831089019775
            ],
            "min" : [
                -82.41108703613281,
                -11.604418754577637,
                -49.39869689941406
            ],
            "type" : "VEC3"
        },
        {
            "bufferView" : 1,
            "componentType" : 5126,
            "count" : 5002,
            "type" : "VEC3"
        },
        {
            "bufferView" : 2,
            "componentType" : 5126,
            "count" : 5002,
            "type" : "VEC2"
        },
        {
            "bufferView" : 3,
            "componentType" : 5123,
            "count" : 24318,
            "type" : "SCALAR"
        },
        {
            "bufferView" : 4,
            "componentType" : 5126,
            "count" : 153,
            "max" : [
                -49.821414947509766,
                13.316280364990234,
                -11.336371421813965
            ],
            "min" : [
                -72.20756530761719,
                7.228551864624023,
                -37.37937927246094
            ],
            "type" : "VEC3"
        },
        {
            "bufferView" : 5,
            "componentType" : 5126,
            "count" : 153,
            "type" : "VEC3"
        },
        {
            "bufferView" : 6,
            "componentType" : 5126,
            "count" : 153,
            "type" : "VEC2"
        },
        {
            "bufferView" : 7,
            "componentType" : 5123,
            "count" : 768,
            "type" : "SCALAR"
        }
    ],
    "bufferViews" : [
        {
            "buffer" : 0,
            "byteLength" : 60024,
            "byteOffset" : 0
        },
        {
            "buffer" : 0,
            "byteLength" : 60024,
            "byteOffset" : 60024
        },
        {
            "buffer" : 0,
            "byteLength" : 40016,
            "byteOffset" : 120048
        },
        {
            "buffer" : 0,
            "byteLength" : 48636,
            "byteOffset" : 160064
        },
        {
            "buffer" : 0,
            "byteLength" : 1836,
            "byteOffset" : 208700
        },
        {
            "buffer" : 0,
            "byteLength" : 1836,
            "byteOffset" : 210536
        },
        {
            "buffer" : 0,
            "byteLength" : 1224,
            "byteOffset" : 212372
        },
        {
            "buffer" : 0,
            "byteLength" : 1536,
            "byteOffset" : 213596
        }
    ],
    "samplers" : [
        {
            "magFilter" : 9729,
            "minFilter" : 9987
        }
    ],
    "buffers" : [
        {
            "byteLength" : 215132,
            "uri" : "tshirt-woman.bin"
        }
    ]
}
