{
    "asset" : {
        "generator" : "Khronos glTF Blender I/O v1.7.33",
        "version" : "2.0"
    },
    "scene" : 0,
    "scenes" : [
        {
            "name" : "Scene",
            "nodes" : [
                0
            ]
        }
    ],
    "nodes" : [
        {
            "mesh" : 0,
            "name" : "tshirt",
            "rotation" : [
                0.7071068286895752,
                0,
                0,
                0.7071067094802856
            ]
        }
    ],
    "materials" : [
        {
            "doubleSided" : true,
            "name" : "material",
            "pbrMetallicRoughness" : {
                "baseColorFactor" : [
                    0.3373088836669922,
                    0.19262178242206573,
                    0.8000000715255737,
                    1
                ],
                "metallicFactor" : 0,
                "roughnessFactor" : 0.5
            }
        },
        {
            "doubleSided" : true,
            "name" : "image",
            "pbrMetallicRoughness" : {
                "baseColorTexture" : {
                    "index" : 0
                },
                "metallicFactor" : 0,
                "roughnessFactor" : 0.5
            }
        }
    ],
    "meshes" : [
        {
            "name" : "tshirt",
            "primitives" : [
                {
                    "attributes" : {
                        "POSITION" : 0,
                        "NORMAL" : 1,
                        "TEXCOORD_0" : 2
                    },
                    "indices" : 3,
                    "material" : 0
                },
                {
                    "attributes" : {
                        "POSITION" : 4,
                        "NORMAL" : 5,
                        "TEXCOORD_0" : 6
                    },
                    "indices" : 7,
                    "material" : 1
                }
            ]
        }
    ],
    "textures" : [
        {
            "sampler" : 0,
            "source" : 0
        }
    ],
    "images" : [
        {
            "mimeType" : "image/jpeg",
            "name" : "image_tshirt_1",
            "uri" : "image_tshirt_1.jpg"
        }
    ],
    "accessors" : [
        {
            "bufferView" : 0,
            "componentType" : 5126,
            "count" : 24724,
            "max" : [
                27.597469329833984,
                13.935164451599121,
                5.756649017333984
            ],
            "min" : [
                -27.675758361816406,
                -13.047693252563477,
                -55.5881462097168
            ],
            "type" : "VEC3"
        },
        {
            "bufferView" : 1,
            "componentType" : 5126,
            "count" : 24724,
            "type" : "VEC3"
        },
        {
            "bufferView" : 2,
            "componentType" : 5126,
            "count" : 24724,
            "type" : "VEC2"
        },
        {
            "bufferView" : 3,
            "componentType" : 5123,
            "count" : 37080,
            "type" : "SCALAR"
        },
        {
            "bufferView" : 4,
            "componentType" : 5126,
            "count" : 1088,
            "max" : [
                10.437909126281738,
                13.868282318115234,
                -15.703805923461914
            ],
            "min" : [
                -10.441452980041504,
                7.974791049957275,
                -44.76387023925781
            ],
            "type" : "VEC3"
        },
        {
            "bufferView" : 5,
            "componentType" : 5126,
            "count" : 1088,
            "type" : "VEC3"
        },
        {
            "bufferView" : 6,
            "componentType" : 5126,
            "count" : 1088,
            "type" : "VEC2"
        },
        {
            "bufferView" : 7,
            "componentType" : 5123,
            "count" : 1632,
            "type" : "SCALAR"
        }
    ],
    "bufferViews" : [
        {
            "buffer" : 0,
            "byteLength" : 296688,
            "byteOffset" : 0
        },
        {
            "buffer" : 0,
            "byteLength" : 296688,
            "byteOffset" : 296688
        },
        {
            "buffer" : 0,
            "byteLength" : 197792,
            "byteOffset" : 593376
        },
        {
            "buffer" : 0,
            "byteLength" : 74160,
            "byteOffset" : 791168
        },
        {
            "buffer" : 0,
            "byteLength" : 13056,
            "byteOffset" : 865328
        },
        {
            "buffer" : 0,
            "byteLength" : 13056,
            "byteOffset" : 878384
        },
        {
            "buffer" : 0,
            "byteLength" : 8704,
            "byteOffset" : 891440
        },
        {
            "buffer" : 0,
            "byteLength" : 3264,
            "byteOffset" : 900144
        }
    ],
    "samplers" : [
        {
            "magFilter" : 9729,
            "minFilter" : 9987
        }
    ],
    "buffers" : [
        {
            "byteLength" : 903408,
            "uri" : "tshirt-man.bin"
        }
    ]
}
